<svg width="64" height="64" viewBox="0 0 64 64" xmlns="http://www.w3.org/2000/svg">
  <!-- Spell Book -->
  <path d="M 15 10 L 50 10 L 50 54 L 15 54 Q 12 54 12 51 L 12 13 Q 12 10 15 10" fill="#7C3AED"/>
  <path d="M 15 10 L 15 54 Q 12 54 12 51 L 12 13 Q 12 10 15 10" fill="#6D28D9"/>
  <rect x="20" y="20" width="24" height="3" fill="#FCD34D" rx="1.5"/>
  <rect x="20" y="28" width="20" height="2" fill="#FDE68A" rx="1"/>
  <rect x="20" y="34" width="22" height="2" fill="#FDE68A" rx="1"/>
  <rect x="20" y="40" width="18" height="2" fill="#FDE68A" rx="1"/>
  <!-- Magic symbol -->
  <polygon points="38,38 40,42 44,42 41,45 42,49 38,46 34,49 35,45 32,42 36,42" fill="#FCD34D"/>
</svg>

