<svg width="64" height="64" viewBox="0 0 64 64" xmlns="http://www.w3.org/2000/svg">
  <!-- Treasure Chest -->
  <path d="M 12 28 L 52 28 L 52 52 L 12 52 Z" fill="#92400E"/>
  <path d="M 12 28 L 12 30 L 52 30 L 52 28 Z" fill="#78350F"/>
  <rect x="16" y="32" width="32" height="3" fill="#FCD34D"/>
  <path d="M 16 20 Q 16 14 22 14 L 42 14 Q 48 14 48 20 L 48 28 L 16 28 Z" fill="#B45309"/>
  <circle cx="32" cy="40" r="4" fill="#FCD34D"/>
  <rect x="31" y="38" width="2" height="8" fill="#FCD34D"/>
  <!-- Gems -->
  <polygon points="25,38 27,40 25,42 23,40" fill="#34D399"/>
  <polygon points="39,38 41,40 39,42 37,40" fill="#3B82F6"/>
</svg>

