<svg width="200" height="200" viewBox="0 0 200 200" xmlns="http://www.w3.org/2000/svg">
  <!-- Green Wizard -->
  <circle cx="100" cy="100" r="90" fill="#D1FAE5"/>
  
  <!-- Face -->
  <circle cx="100" cy="95" r="45" fill="#FED7AA"/>
  
  <!-- Eyes -->
  <circle cx="85" cy="90" r="6" fill="#1F2937"/>
  <circle cx="115" cy="90" r="6" fill="#1F2937"/>
  <circle cx="87" cy="88" r="2" fill="#FFFFFF"/>
  <circle cx="117" cy="88" r="2" fill="#FFFFFF"/>
  
  <!-- Big smile -->
  <path d="M 82 105 Q 100 118 118 105" stroke="#1F2937" stroke-width="3" fill="none" stroke-linecap="round"/>
  
  <!-- Wizard Hat -->
  <path d="M 60 75 L 100 18 L 140 75 Z" fill="#10B981"/>
  <ellipse cx="100" cy="75" rx="45" ry="8" fill="#10B981"/>
  <circle cx="100" cy="18" r="8" fill="#FBBF24"/>
  
  <!-- Hat lightning bolts -->
  <path d="M 82 55 L 78 45 L 84 45 L 80 35 L 88 45 L 83 45 Z" fill="#FBBF24"/>
  <path d="M 118 50 L 114 40 L 120 40 L 116 30 L 124 40 L 119 40 Z" fill="#FBBF24"/>
  
  <!-- Body/Robe -->
  <ellipse cx="100" cy="150" rx="50" ry="35" fill="#34D399"/>
  <path d="M 50 140 Q 100 165 150 140" fill="#6EE7B7" opacity="0.7"/>
  
  <!-- Magic sparkles -->
  <polygon points="25,105 27,110 32,110 28,113 30,118 25,115 20,118 22,113 18,110 23,110" fill="#FBBF24" opacity="0.8"/>
  <polygon points="175,105 177,110 182,110 178,113 180,118 175,115 170,118 172,113 168,110 173,110" fill="#FBBF24" opacity="0.8"/>
</svg>

