<svg width="200" height="200" viewBox="0 0 200 200" xmlns="http://www.w3.org/2000/svg">
  <!-- Pink Wizard -->
  <circle cx="100" cy="100" r="90" fill="#FCE7F3"/>
  
  <!-- Face -->
  <circle cx="100" cy="95" r="45" fill="#FECACA"/>
  
  <!-- Eyes -->
  <circle cx="85" cy="90" r="6" fill="#1F2937"/>
  <circle cx="115" cy="90" r="6" fill="#1F2937"/>
  <circle cx="87" cy="88" r="2" fill="#FFFFFF"/>
  <circle cx="117" cy="88" r="2" fill="#FFFFFF"/>
  
  <!-- Cheerful smile -->
  <ellipse cx="100" cy="108" rx="15" ry="10" fill="#FB7185" opacity="0.3"/>
  <path d="M 85 105 Q 100 115 115 105" stroke="#1F2937" stroke-width="3" fill="none" stroke-linecap="round"/>
  
  <!-- Wizard Hat -->
  <path d="M 60 75 L 100 20 L 140 75 Z" fill="#EC4899"/>
  <ellipse cx="100" cy="75" rx="45" ry="8" fill="#EC4899"/>
  <circle cx="100" cy="20" r="8" fill="#FDE047"/>
  
  <!-- Hat hearts -->
  <path d="M 80 50 Q 75 45 70 50 Q 70 58 80 62 Q 90 58 90 50 Q 85 45 80 50" fill="#FDE047"/>
  <path d="M 118 45 Q 115 42 112 45 Q 112 50 118 53 Q 124 50 124 45 Q 121 42 118 45" fill="#FDE047"/>
  
  <!-- Body/Robe -->
  <ellipse cx="100" cy="150" rx="50" ry="35" fill="#F472B6"/>
  <path d="M 50 140 Q 100 165 150 140" fill="#F9A8D4" opacity="0.7"/>
  
  <!-- Floating hearts -->
  <path d="M 30 100 Q 27 97 24 100 Q 24 105 30 108 Q 36 105 36 100 Q 33 97 30 100" fill="#FDE047" opacity="0.7"/>
  <path d="M 170 95 Q 167 92 164 95 Q 164 100 170 103 Q 176 100 176 95 Q 173 92 170 95" fill="#FDE047" opacity="0.7"/>
</svg>

